<svg width="7" height="12" viewBox="0 0 7 12" fill="none" xmlns="http://www.w3.org/2000/svg">
<path d="M5.83854 11.9999C5.68912 12.0004 5.54148 11.9721 5.40648 11.9172C5.27147 11.8624 5.15253 11.7823 5.0584 11.6828L0.227529 6.54046C0.0804207 6.3871 0 6.19474 0 5.99622C0 5.7977 0.0804207 5.60534 0.227529 5.45199L5.22843 0.309616C5.3982 0.134589 5.64215 0.0245216 5.90663 0.00362666C6.1711 -0.0172683 6.43443 0.052721 6.63868 0.198197C6.84294 0.343674 6.97138 0.552721 6.99577 0.779351C7.02015 1.00598 6.93848 1.23163 6.76871 1.40665L2.2979 6.00051L6.61868 10.5944C6.74098 10.7202 6.81868 10.8734 6.84256 11.0358C6.86644 11.1983 6.83552 11.3632 6.75345 11.5111C6.67138 11.6589 6.5416 11.7835 6.37946 11.8702C6.21732 11.9568 6.02961 12.0019 5.83854 11.9999Z" fill="#EDEDED"/>
</svg>
